<svg width="307" height="227" viewBox="0 0 307 227" fill="none" xmlns="http://www.w3.org/2000/svg">
<g clip-path="url(#clip0)">
<path d="M0 226.847H49.2555" stroke="#3F3D56" stroke-miterlimit="10"/>
<path d="M285.03 39.0967H77.8587C74.6799 39.0967 72.103 41.7545 72.103 45.033V185.87C72.103 189.149 74.6799 191.807 77.8587 191.807H285.03C288.208 191.807 290.785 189.149 290.785 185.87V45.033C290.785 41.7545 288.208 39.0967 285.03 39.0967Z" fill="#FFFEFE"/>
<path opacity="0.3" d="M253.668 78.4214H198.236C197.074 78.4214 196.131 79.3932 196.131 80.5919V85.7379C196.131 86.9366 197.074 87.9084 198.236 87.9084H253.668C254.83 87.9084 255.772 86.9366 255.772 85.7379V80.5919C255.772 79.3932 254.83 78.4214 253.668 78.4214Z" fill="black"/>
<path opacity="0.3" d="M265.092 104.74H186.812C185.65 104.74 184.708 105.712 184.708 106.911V110.22C184.708 111.419 185.65 112.391 186.812 112.391H265.092C266.254 112.391 267.196 111.419 267.196 110.22V106.911C267.196 105.712 266.254 104.74 265.092 104.74Z" fill="black"/>
<path opacity="0.3" d="M265.092 125.55H186.812C185.65 125.55 184.708 126.522 184.708 127.721V131.031C184.708 132.229 185.65 133.201 186.812 133.201H265.092C266.254 133.201 267.196 132.229 267.196 131.031V127.721C267.196 126.522 266.254 125.55 265.092 125.55Z" fill="black"/>
<path opacity="0.3" d="M265.092 146.361H186.812C185.65 146.361 184.708 147.333 184.708 148.531V151.841C184.708 153.04 185.65 154.012 186.812 154.012H265.092C266.254 154.012 267.196 153.04 267.196 151.841V148.531C267.196 147.333 266.254 146.361 265.092 146.361Z" fill="black"/>
<path d="M256.635 75.3613H201.204C200.041 75.3613 199.099 76.3331 199.099 77.5319V82.6778C199.099 83.8765 200.041 84.8483 201.204 84.8483H256.635C257.797 84.8483 258.74 83.8765 258.74 82.6778V77.5319C258.74 76.3331 257.797 75.3613 256.635 75.3613Z" stroke="#3F3D56" stroke-miterlimit="10"/>
<path d="M268.059 101.68H189.78C188.618 101.68 187.675 102.652 187.675 103.851V107.16C187.675 108.359 188.618 109.331 189.78 109.331H268.059C269.221 109.331 270.163 108.359 270.163 107.16V103.851C270.163 102.652 269.221 101.68 268.059 101.68Z" stroke="#3F3D56" stroke-miterlimit="10"/>
<path d="M268.059 122.49H189.78C188.618 122.49 187.675 123.462 187.675 124.661V127.97C187.675 129.169 188.618 130.141 189.78 130.141H268.059C269.221 130.141 270.163 129.169 270.163 127.97V124.661C270.163 123.462 269.221 122.49 268.059 122.49Z" stroke="#3F3D56" stroke-miterlimit="10"/>
<path d="M268.059 143.3H189.78C188.618 143.3 187.675 144.272 187.675 145.471V148.781C187.675 149.979 188.618 150.951 189.78 150.951H268.059C269.221 150.951 270.163 149.979 270.163 148.781V145.471C270.163 144.272 269.221 143.3 268.059 143.3Z" stroke="#3F3D56" stroke-miterlimit="10"/>
<path opacity="0.3" d="M82.0431 43.2278C84.5012 43.2278 86.4939 41.1726 86.4939 38.6374C86.4939 36.1021 84.5012 34.0469 82.0431 34.0469C79.585 34.0469 77.5923 36.1021 77.5923 38.6374C77.5923 41.1726 79.585 43.2278 82.0431 43.2278Z" fill="black"/>
<path opacity="0.3" d="M94.505 43.2278C96.9631 43.2278 98.9558 41.1726 98.9558 38.6374C98.9558 36.1021 96.9631 34.0469 94.505 34.0469C92.0469 34.0469 90.0542 36.1021 90.0542 38.6374C90.0542 41.1726 92.0469 43.2278 94.505 43.2278Z" fill="black"/>
<path opacity="0.3" d="M106.967 43.2278C109.426 43.2278 111.418 41.1726 111.418 38.6374C111.418 36.1021 109.426 34.0469 106.967 34.0469C104.509 34.0469 102.517 36.1021 102.517 38.6374C102.517 41.1726 104.509 43.2278 106.967 43.2278Z" fill="black"/>
<path d="M83.8233 41.3919C86.2814 41.3919 88.2741 39.3367 88.2741 36.8014C88.2741 34.2662 86.2814 32.2109 83.8233 32.2109C81.3652 32.2109 79.3726 34.2662 79.3726 36.8014C79.3726 39.3367 81.3652 41.3919 83.8233 41.3919Z" stroke="#3F3D56" stroke-miterlimit="10"/>
<path d="M96.2853 41.3919C98.7434 41.3919 100.736 39.3367 100.736 36.8014C100.736 34.2662 98.7434 32.2109 96.2853 32.2109C93.8272 32.2109 91.8345 34.2662 91.8345 36.8014C91.8345 39.3367 93.8272 41.3919 96.2853 41.3919Z" stroke="#3F3D56" stroke-miterlimit="10"/>
<path d="M108.748 41.3919C111.206 41.3919 113.198 39.3367 113.198 36.8014C113.198 34.2662 111.206 32.2109 108.748 32.2109C106.29 32.2109 104.297 34.2662 104.297 36.8014C104.297 39.3367 106.29 41.3919 108.748 41.3919Z" stroke="#3F3D56" stroke-miterlimit="10"/>
<path d="M134.519 175.74C133.774 172.2 133.576 167.364 133.827 164C133.827 164 130.059 146.928 127.094 145.335L127.093 145.336C127.048 145.396 125.609 147.342 125.427 153.361C125.241 159.477 123.142 163.49 123.142 163.49C123.142 163.49 123.821 171.113 123.433 175.74L134.519 175.74Z" fill="#586783"/>
<path d="M161.928 67.0986H93.5472C92.6209 67.0986 91.7037 67.2868 90.8479 67.6524C89.9921 68.018 89.2146 68.5539 88.5596 69.2294C87.9046 69.9049 87.385 70.7069 87.0306 71.5895C86.6761 72.4722 86.4937 73.4182 86.4937 74.3735V168.465C86.4937 169.42 86.6761 170.366 87.0306 171.249C87.385 172.132 87.9046 172.934 88.5596 173.609C89.2146 174.285 89.9921 174.821 90.8479 175.186C91.7037 175.552 92.6209 175.74 93.5472 175.74H117.538C116.737 172.313 115.741 166.96 116.75 163.238L116.749 163.235L116.75 163.237C116.797 163.063 116.847 162.892 116.903 162.726C117.596 160.31 117.827 157.779 117.583 155.273C118.029 153.131 118.029 150.916 117.583 148.775C116.842 145.208 116.323 141.704 116.323 141.704C116.323 141.704 115.915 136.99 116.271 134.101C116.279 134.037 116.288 133.977 116.297 133.916C116.171 133.886 116.101 133.869 116.101 133.869C116.101 133.869 117.151 128.964 117.521 125.843C117.609 125.106 117.724 124.172 117.848 123.176C117.506 123.117 117.17 123.029 116.842 122.912C113.507 121.702 112.457 110.745 112.457 110.745V107.274C112.457 107.274 111.345 101.954 115.236 99.5974C118.983 97.3278 120.479 96.7066 120.585 96.6637C120.613 96.6426 120.641 96.6235 120.67 96.6003C121.094 96.2575 121.429 95.8125 121.646 95.3046C121.651 95.2171 121.653 95.1302 121.65 95.0438C121.587 93.7993 120.747 92.6675 119.95 91.6799C119.27 90.8375 118.59 89.9952 117.91 89.1529C117.677 88.902 117.498 88.6032 117.385 88.2761C117.342 88.0956 117.323 87.9099 117.329 87.7241C117.329 87.6554 117.329 87.5867 117.331 87.5181C117.342 86.8901 117.358 86.2622 117.38 85.6344C117.399 85.0859 117.533 84.3939 118.054 84.2811C118.325 84.2225 118.683 84.3247 118.827 84.0805C118.875 83.9798 118.887 83.8649 118.861 83.7559C118.859 83.764 118.859 83.7726 118.857 83.7805C118.855 83.7703 118.853 83.7601 118.851 83.75C118.744 83.3102 118.68 82.8606 118.658 82.4076C118.653 82.2032 118.681 81.9993 118.742 81.8048C119.044 80.8943 120.083 80.5207 121.001 80.3489C121.918 80.1771 122.949 80.0293 123.525 79.2726C123.679 79.0213 123.847 78.7788 124.026 78.5461C124.291 78.2983 124.615 78.1293 124.966 78.0574C126.105 77.76 127.309 77.8702 128.38 78.37C128.824 78.5789 129.27 78.8604 129.757 78.8285C130.263 78.7955 130.695 78.4282 131.194 78.3388C132.001 78.1945 132.773 78.818 133.17 79.5563C133.423 80.026 133.549 80.5567 133.536 81.0936C133.546 81.628 133.359 82.1464 133.013 82.5445C132.665 82.9244 132.147 83.1854 132.003 83.6858C131.944 83.8896 131.958 84.1089 131.906 84.3146C131.9 84.3403 131.889 84.3643 131.881 84.3892C131.89 84.4019 131.9 84.414 131.91 84.4268C132.517 85.2523 132.924 86.2156 133.097 87.2364C133.27 88.2572 133.204 89.3058 132.904 90.2947C132.604 91.2837 132.079 92.1843 131.372 92.9213C130.666 93.6584 129.799 94.2106 128.844 94.5318C128.842 94.5962 128.839 94.6607 128.84 94.7255C128.822 95.1271 128.888 95.5279 129.033 95.9009C129.179 96.2739 129.4 96.6104 129.682 96.8875L135.186 99.2152C135.186 99.2152 138.499 98.801 139.694 103.9C139.886 104.748 139.955 105.62 139.899 106.489C139.855 107.258 139.957 108.611 140.806 110.363C142.165 113.166 141.856 119.6 139.077 120.237C136.444 120.84 135.42 120.587 135.319 120.558L135.313 120.671C135.356 121.878 135.773 132.291 137.285 133.55C137.704 133.899 137.624 134.134 137.281 134.293L137.281 134.294C137.281 134.294 137.284 134.361 137.291 134.481C137.336 135.243 137.57 138.143 138.582 139.793C139.756 141.704 139.633 152.725 139.633 152.725L140.435 159.223C140.435 159.223 139.941 163.236 140.435 163.936C140.716 164.333 141.055 170.486 141.297 175.74H161.928C163.799 175.74 165.593 174.973 166.916 173.609C168.238 172.245 168.982 170.394 168.982 168.465V74.3735C168.982 73.4182 168.799 72.4722 168.445 71.5895C168.09 70.7069 167.571 69.9049 166.916 69.2294C166.261 68.5539 165.483 68.018 164.627 67.6524C163.771 67.2868 162.854 67.0986 161.928 67.0986V67.0986Z" fill="#586783"/>
<path d="M154.807 58.8354H86.4261C82.5305 58.8354 79.3726 62.0925 79.3726 66.1103V160.202C79.3726 164.22 82.5305 167.477 86.4261 167.477H154.807C158.703 167.477 161.861 164.22 161.861 160.202V66.1103C161.861 62.0925 158.703 58.8354 154.807 58.8354Z" stroke="#3F3D56" stroke-miterlimit="10"/>
<path d="M29.9167 98.4291C29.9167 98.4291 27.15 97.5854 26.5565 98.5035C25.9631 99.4215 27.3656 106.077 27.3656 106.077L33.462 106.459L31.3344 100.918L29.9167 98.4291Z" fill="#2F2E41"/>
<path d="M8.58852 153.083C8.58852 153.083 14.1356 165.644 9.86371 165.249C5.59183 164.855 3.93408 153.083 3.93408 153.083H8.58852Z" fill="#A0616A"/>
<path d="M44.8672 151.775C44.8672 151.775 42.4337 165.347 46.4859 163.897C50.538 162.448 49.3831 150.613 49.3831 150.613L44.8672 151.775Z" fill="#A0616A"/>
<path d="M28.7363 95.2801C28.7363 95.2801 28.6726 101.593 31.0317 101.922C33.3908 102.251 29.6927 105.605 29.6927 105.605L25.4846 106.459L19.4274 105.999L16.7495 102.448C16.7495 102.448 21.4677 100.146 19.4274 92.9785L28.7363 95.2801Z" fill="#A0616A"/>
<path opacity="0.1" d="M28.7363 95.2801C28.7363 95.2801 28.6726 101.593 31.0317 101.922C33.3908 102.251 29.6927 105.605 29.6927 105.605L25.4846 106.459L19.4274 105.999L16.7495 102.448C16.7495 102.448 21.4677 100.146 19.4274 92.9785L28.7363 95.2801Z" fill="black"/>
<path d="M39.5755 148.677C39.5755 148.677 42.5722 155.319 40.2131 176.165C40.2131 176.165 40.9145 183.53 40.3406 184.911C39.7668 186.292 35.0486 205.034 35.0486 205.034C35.0486 205.034 28.9914 206.415 28.1626 202.272C28.1626 202.272 28.9914 196.354 28.9277 195.433C28.8639 194.512 30.2666 184.451 30.2666 184.451L27.3975 164.986L25.2296 182.544C25.2296 182.544 25.2296 187.607 24.5283 188.725C23.8269 189.843 24.5283 212.333 24.5283 212.333C24.5283 212.333 26.5048 215.753 23.5081 215.819C20.5114 215.884 17.8335 215.753 17.5785 213.583C17.3234 211.413 17.1959 209.243 16.5583 207.927C15.9207 206.612 15.0919 191.553 15.2831 186.292C15.4744 181.031 11.075 154.004 12.4777 151.176C13.8804 148.348 39.5755 148.677 39.5755 148.677Z" fill="black"/>
<path d="M25.4846 97.6472C29.7102 97.6472 33.1357 94.1142 33.1357 89.756C33.1357 85.3978 29.7102 81.8647 25.4846 81.8647C21.259 81.8647 17.8335 85.3978 17.8335 89.756C17.8335 94.1142 21.259 97.6472 25.4846 97.6472Z" fill="#A0616A"/>
<path d="M17.8334 102.579C17.8334 102.579 22.4879 106.13 29.2464 103.303C29.2464 103.303 31.4779 102.185 31.2867 100.475C31.0954 98.7651 35.9411 114.219 35.9411 114.219L40.8506 141.115L40.5955 152.097C40.5955 152.097 38.4277 150.979 31.6692 153.478C24.9107 155.977 13.8804 150.65 13.8804 150.65L14.2629 122.439L14.6455 105.999L15.6656 102.382C15.6656 102.382 16.1757 101.396 17.8334 102.579Z" fill="#F2F2F2"/>
<path d="M28.9487 98.165C28.9487 98.165 30.0751 97.9763 31.159 99.7518C32.2429 101.527 34.7933 102.645 34.7933 102.645C34.7933 102.645 40.9779 103.04 41.8706 106.459C42.7632 109.879 44.9948 114.548 46.0787 123.163C47.1626 131.777 49.3304 145.521 49.6492 146.639C49.968 147.757 49.2029 151.176 50.0955 152.229C50.9882 153.281 43.7834 153.281 43.7834 153.281C43.7834 153.281 43.1458 147.888 42.6994 147.888C42.2531 147.888 42.3806 151.505 42.827 154.136C43.2733 156.766 39.5752 154.136 39.5752 154.136C39.5752 154.136 36.706 142.102 33.9644 131.251C31.2227 120.401 29.6287 114.416 30.1388 111.983C30.6489 109.55 32.0516 102.58 31.0314 101.922C30.0113 101.264 28.9487 98.165 28.9487 98.165Z" fill="black"/>
<path d="M19.7544 98.1592C19.7544 98.1592 18.0886 99.0942 13.8805 102.185C9.67237 105.276 6.8032 107.643 6.8032 107.643C6.8032 107.643 5.14546 108.958 4.12531 116.784C3.10516 124.609 0.809815 144.864 1.70245 147.428C2.59509 149.993 2.91388 151.505 2.59508 153.018C2.27629 154.53 9.28983 154.465 9.41734 154.136C9.54486 153.807 9.22606 147.823 9.54486 147.691C9.86366 147.56 11.5852 151.242 11.904 154.333C12.2228 157.424 15.9208 159.857 16.7497 159.857C17.5786 159.857 21.8504 142.036 21.9142 129.87C21.978 117.704 20.5115 107.446 19.4276 105.999C18.3437 104.552 19.7544 98.1592 19.7544 98.1592Z" fill="black"/>
<path d="M30.9677 205.626C30.9677 205.626 31.4778 204.18 33.2631 204.64C35.0483 205.1 36.2598 203.456 36.2598 203.456C36.2598 203.456 37.2161 203.325 36.5786 204.574C35.941 205.824 35.4309 206.679 35.4309 206.679C35.4309 206.679 39.2564 215.688 36.7698 217.858C34.2832 220.028 31.414 218.713 31.414 218.713C31.414 218.713 28.6086 216.674 28.7362 211.282C28.7362 211.282 28.6086 209.572 27.0784 206.81C25.5482 204.048 24.4005 199.839 26.2495 199.05C28.0986 198.261 28.5745 198.232 28.5745 198.232C28.5745 198.232 27.7092 202.314 29.9442 203.74L30.9677 205.626Z" fill="black"/>
<path d="M19.1086 215.819C19.1086 215.819 17.5784 212.86 20.1288 212.531C22.6792 212.202 25.4208 212.005 25.2933 213.386C25.1658 214.767 24.847 216.871 24.847 216.871L25.2933 218.384C25.2933 218.384 25.4208 222.132 25.8671 222.592C26.3135 223.053 28.7363 226.998 23.5718 226.998C18.4073 226.998 16.877 226.406 17.3234 225.157C17.7697 223.907 17.8972 217.726 17.8972 217.726L19.1086 215.819Z" fill="black"/>
<path d="M23.0618 83.4432C23.0618 83.4432 26.6323 84.4296 28.4814 84.8242C30.3304 85.2187 30.1391 84.1008 30.1391 84.1008C30.1391 84.1008 32.562 84.4296 32.4345 84.1666C32.3069 83.9035 33.4546 82.5226 32.1157 80.9443C30.7767 79.3661 31.1593 78.1824 31.1593 78.1824H30.0116L29.6928 77.7221H27.9075C27.9075 77.7221 26.5686 77.196 23.0618 77.7221C19.555 78.2482 14.7731 78.3797 14.3905 80.5498C14.008 82.7199 12.0314 85.416 12.7328 86.6655C13.4341 87.9149 17.451 93.0442 17.8335 95.2143C18.2161 97.3844 20.0024 97.8665 19.9381 96.5075C19.8738 95.1485 18.0886 90.4138 19.6188 90.2165C21.149 90.0192 23.7632 86.0079 23.0618 83.4432Z" fill="#292723"/>
</g>
<defs>
<clipPath id="clip0">
<rect width="306.214" height="227" fill="white"/>
</clipPath>
</defs>
</svg>
