<svg width="441" height="421" viewBox="0 0 441 421" fill="none" xmlns="http://www.w3.org/2000/svg">
<path d="M269.943 318.342H171.059V413.409H269.943V318.342Z" fill="#D2D2D2"/>
<path d="M287.225 405.833H153.785C150.262 405.833 147.406 409.229 147.406 413.417V413.417C147.406 417.605 150.262 421 153.785 421H287.225C290.749 421 293.605 417.605 293.605 413.417V413.417C293.605 409.229 290.749 405.833 287.225 405.833Z" fill="#F4F4F4"/>
<path d="M423.051 2H17.9485C9.14041 2 2 10.4803 2 20.9412V329.059C2 339.52 9.14041 348 17.9485 348H423.051C431.86 348 439 339.52 439 329.059V20.9412C439 10.4803 431.86 2 423.051 2Z" fill="#F4F4F4" stroke="#F4F4F4" stroke-width="2.4048" stroke-linecap="round" stroke-linejoin="round"/>
<path d="M17.9473 2C9.11163 2 2 10.4493 2 20.9473V287H439V20.9473C439 10.4495 431.886 2 423.05 2H17.9523H17.9473Z" fill="#2B2B2B"/>
<path fill-rule="evenodd" clip-rule="evenodd" d="M423 20L16 269L17.4984 20H423Z" fill="white" fill-opacity="0.07767"/>
</svg>
